<?xml version="1.0" standalone="no"?>
<!DOCTYPE svg PUBLIC "-//W3C//DTD SVG 20010904//EN"
 "http://www.w3.org/TR/2001/REC-SVG-20010904/DTD/svg10.dtd">
<svg version="1.0" xmlns="http://www.w3.org/2000/svg"
 width="102.000000pt" height="102.000000pt" viewBox="0 0 102.000000 102.000000"
 preserveAspectRatio="xMidYMid meet">
<metadata>
Created by potrace 1.10, written by Peter Selinger 2001-2011
</metadata>
<g transform="translate(0.000000,102.000000) scale(0.100000,-0.100000)"
fill="#000000" stroke="none">
<path d="M495 1010 c-4 -6 -5 -40 -4 -77 l2 -67 -63 -13 c-87 -17 -160 -56
-220 -117 -61 -62 -84 -98 -110 -176 -51 -151 -4 -326 117 -441 94 -89 209
-124 356 -108 163 16 309 146 353 313 19 70 18 126 -1 126 -8 0 -15 -3 -16 -7
0 -5 -2 -19 -4 -33 -3 -14 -7 -43 -10 -64 -15 -100 -115 -224 -223 -274 -50
-24 -69 -27 -162 -27 -93 0 -112 3 -162 27 -116 54 -207 173 -226 294 -11 66
0 164 23 220 51 122 174 216 310 237 l41 7 -4 -71 c-3 -39 0 -75 5 -80 6 -6
73 14 184 56 96 37 193 73 217 82 23 8 42 21 42 29 0 8 -1 14 -3 14 -2 0 -16
5 -265 99 -90 33 -165 61 -167 61 -2 0 -7 -5 -10 -10z m165 -85 c19 -7 71 -26
115 -41 44 -16 82 -33 83 -38 2 -4 -32 -21 -75 -36 -43 -15 -116 -42 -163 -60
-47 -19 -86 -33 -88 -32 -3 2 -4 227 -2 257 0 2 21 -5 48 -16 26 -11 63 -26
82 -34z"/>
</g>
</svg>
