<?xml version="1.0" standalone="no"?>
<!DOCTYPE svg PUBLIC "-//W3C//DTD SVG 20010904//EN"
 "http://www.w3.org/TR/2001/REC-SVG-20010904/DTD/svg10.dtd">
<svg version="1.0" xmlns="http://www.w3.org/2000/svg"
 width="32.000000pt" height="32.000000pt" viewBox="0 0 32.000000 32.000000"
 preserveAspectRatio="xMidYMid meet">
<metadata>
Created by potrace 1.10, written by Peter Selinger 2001-2011
</metadata>
<g transform="translate(0.000000,32.000000) scale(0.100000,-0.100000)"
fill="#000000" stroke="none">
<path d="M97 266 c-48 -18 -86 -52 -84 -77 1 -13 5 -15 13 -8 8 6 14 7 18 0 4
-5 2 -12 -4 -16 -6 -4 -7 -12 -3 -18 4 -7 0 -6 -10 2 -15 11 -17 11 -17 -2 0
-21 57 -67 92 -74 23 -4 28 -10 25 -24 -4 -15 1 -19 25 -19 29 0 30 2 26 35
-5 45 18 44 41 -2 11 -22 25 -33 46 -36 17 -3 32 -3 34 -1 4 4 -39 66 -52 75
-6 4 0 12 12 18 28 16 29 66 1 81 -11 6 -46 10 -78 8 l-57 -3 3 -42 c2 -24 1
-52 -3 -62 -6 -19 -9 -17 -37 15 -26 30 -30 40 -22 61 14 40 69 65 131 60 68
-5 103 -28 103 -69 0 -17 -8 -40 -17 -50 -15 -17 -15 -18 0 -13 25 10 40 67
26 99 -27 59 -136 91 -212 62z m131 -113 c-2 -9 -13 -18 -25 -19 -17 -3 -23 1
-23 16 0 15 7 20 26 20 18 0 25 -5 22 -17z"/>
</g>
</svg>
